<svg width="22" height="16" viewBox="0 0 22 16" fill="none" xmlns="http://www.w3.org/2000/svg">
<path fill-rule="evenodd" clip-rule="evenodd" d="M5.14505 11.577C3.62205 10.268 2.53505 8.773 2.02405 8C2.53405 7.227 3.62205 5.732 5.14505 4.423C6.71805 3.072 8.66005 2 10.844 2C13.028 2 14.97 3.072 16.543 4.423C18.066 5.732 19.153 7.227 19.664 8C19.154 8.773 18.066 10.268 16.543 11.577C14.97 12.928 13.028 14 10.844 14C8.66005 14 6.71805 12.928 5.14505 11.577ZM10.844 0C7.99205 0 5.60105 1.395 3.84205 2.906C2.07705 4.423 0.852047 6.138 0.308047 6.97C0.10708 7.27593 0 7.63397 0 8C0 8.36603 0.10708 8.72407 0.308047 9.03C0.852047 9.862 2.07705 11.577 3.84205 13.094C5.60205 14.605 7.99205 16 10.844 16C13.696 16 16.087 14.605 17.846 13.094C19.611 11.577 20.836 9.862 21.38 9.03C21.791 8.402 21.791 7.599 21.38 6.97C20.836 6.138 19.611 4.423 17.846 2.906C16.086 1.395 13.696 0 10.844 0ZM8.84405 8C8.84405 7.46957 9.05476 6.96086 9.42983 6.58579C9.80491 6.21071 10.3136 6 10.844 6C11.3745 6 11.8832 6.21071 12.2583 6.58579C12.6333 6.96086 12.844 7.46957 12.844 8C12.844 8.53043 12.6333 9.03914 12.2583 9.41421C11.8832 9.78929 11.3745 10 10.844 10C10.3136 10 9.80491 9.78929 9.42983 9.41421C9.05476 9.03914 8.84405 8.53043 8.84405 8ZM10.844 4C9.78318 4 8.76577 4.42143 8.01562 5.17157C7.26547 5.92172 6.84405 6.93913 6.84405 8C6.84405 9.06087 7.26547 10.0783 8.01562 10.8284C8.76577 11.5786 9.78318 12 10.844 12C11.9049 12 12.9223 11.5786 13.6725 10.8284C14.4226 10.0783 14.844 9.06087 14.844 8C14.844 6.93913 14.4226 5.92172 13.6725 5.17157C12.9223 4.42143 11.9049 4 10.844 4V4Z" fill="#515151"/>
</svg>
