<svg width="24" height="24" viewBox="0 0 24 24" fill="none" xmlns="http://www.w3.org/2000/svg">
<path fill-rule="evenodd" clip-rule="evenodd" d="M12 5C10.6583 5.00034 9.34498 5.38627 8.21639 6.11182C7.0878 6.83737 6.1915 7.87197 5.63421 9.09245C5.07692 10.3129 4.88212 11.6678 5.073 12.9959C5.26389 14.3239 5.83241 15.5691 6.71088 16.5833C7.58936 17.5974 8.74077 18.3377 10.028 18.716C11.3153 19.0943 12.6841 19.0947 13.9716 18.7171C15.2591 18.3396 16.4109 17.6 17.29 16.5864C18.1691 15.5728 18.7383 14.3279 18.93 13H13C12.7348 13 12.4804 12.8946 12.2929 12.7071C12.1054 12.5196 12 12.2652 12 12C12 11.7348 12.1054 11.4804 12.2929 11.2929C12.4804 11.1054 12.7348 11 13 11H20C20.2652 11 20.5196 11.1054 20.7071 11.2929C20.8946 11.4804 21 11.7348 21 12C20.9998 14.0414 20.3056 16.0221 19.0313 17.617C17.7571 19.2118 15.9785 20.3261 13.9874 20.7769C11.9964 21.2277 9.91132 20.9882 8.07435 20.0978C6.23738 19.2074 4.75769 17.7189 3.87816 15.8767C2.99864 14.0345 2.77153 11.948 3.23411 9.95966C3.6967 7.97135 4.8215 6.19938 6.42388 4.93459C8.02626 3.6698 10.011 2.98734 12.0524 2.99923C14.0938 3.01111 16.0705 3.71664 17.658 5C17.8642 5.16682 17.9957 5.40872 18.0235 5.67249C18.0514 5.93626 17.9733 6.20029 17.8065 6.4065C17.6397 6.61271 17.3978 6.7442 17.134 6.77205C16.8702 6.79989 16.6062 6.72182 16.4 6.555C15.1557 5.54627 13.6018 4.99711 12 5V5Z" fill="#ffffff"/>
</svg>
